<svg height="512pt" viewBox="0 -26 512.00012 512" width="512pt" xmlns="http://www.w3.org/2000/svg"><path d="m230.226562 460.453125c-61.496093 0-119.3125-23.949219-162.792968-67.433594-43.484375-43.480469-67.433594-101.296875-67.433594-162.792969 0-61.496093 23.949219-119.308593 67.433594-162.792968 43.480468-43.484375 101.296875-67.433594 162.792968-67.433594 61.492188 0 119.308594 23.949219 162.792969 67.433594s67.429688 101.296875 67.429688 162.792968c0 43.679688-12.136719 85.75-35.207031 122.398438 32.617187 36.039062 78.554687 62.105469 79.050781 62.382812 5.300781 2.984376 8.300781 8.855469 7.605469 14.898438-.691407 6.046875-4.941407 11.085938-10.78125 12.789062-3.871094 1.128907-92.015626 26.175782-159.140626-11.148437-34.0625 18.9375-72.5 28.90625-111.75 28.90625zm0 0" fill="#c8fdfa"/><path d="m341.980469 431.546875c67.125 37.324219 155.269531 12.277344 159.136719 11.148437 5.839843-1.703124 10.089843-6.742187 10.785156-12.789062.691406-6.042969-2.304688-11.914062-7.609375-14.898438-.492188-.277343-46.433594-26.34375-79.046875-62.382812 23.070312-36.648438 35.207031-78.71875 35.207031-122.398438 0-61.496093-23.949219-119.308593-67.433594-162.792968s-101.296875-67.433594-162.792969-67.433594v460.453125c39.25 0 77.6875-9.96875 111.753907-28.90625zm0 0" fill="#85eef2"/><g fill="#45686e"><path d="m332.714844 312.546875h-204.976563c-8.351562 0-15.117187-6.769531-15.117187-15.121094 0-8.347656 6.765625-15.117187 15.117187-15.117187h204.976563c8.347656 0 15.117187 6.769531 15.117187 15.117187 0 8.351563-6.769531 15.121094-15.117187 15.121094zm0 0"/><path d="m332.714844 245.347656h-204.976563c-8.351562 0-15.117187-6.769531-15.117187-15.117187 0-8.347657 6.765625-15.117188 15.117187-15.117188h204.976563c8.347656 0 15.117187 6.769531 15.117187 15.117188 0 8.347656-6.769531 15.117187-15.117187 15.117187zm0 0"/><path d="m332.714844 178.152344h-204.976563c-8.351562 0-15.117187-6.769532-15.117187-15.117188 0-8.351562 6.765625-15.121094 15.117187-15.121094h204.976563c8.347656 0 15.117187 6.769532 15.117187 15.121094 0 8.347656-6.769531 15.117188-15.117187 15.117188zm0 0"/></g><path d="m332.714844 282.308594h-102.488282v30.238281h102.488282c8.347656 0 15.117187-6.769531 15.117187-15.121094 0-8.347656-6.769531-15.117187-15.117187-15.117187zm0 0" fill="#2a3b3b"/><path d="m332.714844 215.113281h-102.488282v30.234375h102.488282c8.347656 0 15.117187-6.769531 15.117187-15.117187 0-8.347657-6.769531-15.117188-15.117187-15.117188zm0 0" fill="#2a3b3b"/><path d="m332.714844 147.914062h-102.488282v30.238282h102.488282c8.347656 0 15.117187-6.769532 15.117187-15.117188 0-8.351562-6.769531-15.121094-15.117187-15.121094zm0 0" fill="#2a3b3b"/></svg>