<svg id="Capa_1" enable-background="new 0 0 512 512" height="512" viewBox="0 0 512 512" width="512" xmlns="http://www.w3.org/2000/svg"><g><path d="m395.983 395.983v83.87h-279.966v-83.87c0-77.31 62.672-139.983 139.983-139.983 77.311 0 139.983 62.673 139.983 139.983z" fill="#ecf5ff"/><path d="m256 256c-5.224 0-10.378.296-15.453.853 70.038 7.692 124.531 67.043 124.531 139.13v83.87h30.905v-83.87c0-77.31-62.672-139.983-139.983-139.983z" fill="#dceafc"/><path d="m116.017 116.017v-83.87h279.967v83.87c-.001 77.31-62.673 139.983-139.984 139.983-77.311 0-139.983-62.673-139.983-139.983z" fill="#ecf5ff"/><path d="m365.078 32.147v83.87c0 72.087-54.493 131.438-124.531 139.13 5.075.557 10.229.853 15.453.853 77.311 0 139.983-62.673 139.983-139.983v-83.87z" fill="#dceafc"/><path d="m420.314 39.147h-328.628c-3.983 0-7.211-3.229-7.211-7.211v-24.725c0-3.982 3.228-7.211 7.211-7.211h328.628c3.983 0 7.211 3.229 7.211 7.211v24.724c0 3.983-3.228 7.212-7.211 7.212z" fill="#8b818e"/><path d="m420.314 0h-30.905c3.983 0 7.211 3.229 7.211 7.211v24.724c0 3.983-3.229 7.211-7.211 7.211h30.905c3.983 0 7.211-3.229 7.211-7.211v-24.724c0-3.982-3.228-7.211-7.211-7.211z" fill="#756e78"/><path d="m420.314 512h-328.628c-3.983 0-7.211-3.229-7.211-7.211v-24.724c0-3.983 3.229-7.211 7.211-7.211h328.628c3.983 0 7.211 3.229 7.211 7.211v24.724c0 3.982-3.228 7.211-7.211 7.211z" fill="#8b818e"/><path d="m420.314 472.853h-30.905c3.983 0 7.211 3.229 7.211 7.211v24.724c0 3.983-3.229 7.211-7.211 7.211h30.905c3.983 0 7.211-3.229 7.211-7.211v-24.724c0-3.982-3.228-7.211-7.211-7.211z" fill="#756e78"/><path d="m256 305.329c4.268 0 7.726-3.459 7.726-7.726v-41.387c-2.558-.14-5.133-.216-7.726-.216-2.593 0-5.168.076-7.726.215v41.387c0 4.268 3.458 7.727 7.726 7.727z" fill="#efc89d"/><g><path d="m256 353.274c-4.268 0-7.726-3.459-7.726-7.726v-19.003c0-4.267 3.459-7.726 7.726-7.726 4.268 0 7.726 3.459 7.726 7.726v19.003c0 4.266-3.458 7.726-7.726 7.726z" fill="#efc89d"/></g><path d="m116.017 472.853 122.665-82.99c10.461-7.078 24.176-7.078 34.636 0l122.665 82.99z" fill="#efc89d"/><g fill="#ecb780"><path d="m273.318 389.863c-9.85-6.665-22.584-7.048-32.771-1.162.631.365 1.255.749 1.865 1.162l122.665 82.99h30.905z"/><path d="m245.204 424.033c0 4.267-3.459 7.726-7.726 7.726s-7.726-3.459-7.726-7.726 3.459-7.726 7.726-7.726 7.726 3.459 7.726 7.726z"/><path d="m216.167 446.405c0 4.267-3.459 7.726-7.726 7.726s-7.726-3.459-7.726-7.726 3.459-7.726 7.726-7.726c4.267-.001 7.726 3.459 7.726 7.726z"/></g><path d="m332.074 147.573c0 19.542-7.369 37.363-19.479 50.836-13.926 15.493-34.122 10.237-56.595 10.237-9.06 0-17.749 13.416-25.807 10.511-11.304-4.076-21.366-10.754-29.461-19.31-12.896-13.63-5.805-32.029-5.805-52.274 0-16.799-9.555-32.326-.333-44.913 10.935-14.926 27.18-25.716 45.954-29.59 4.989-1.029 25.157 13.43 30.452 13.43 28.007 0 29.163 6.819 38.12 25.108 3.072 6.273 20.297 13.896 21.863 23.056.717 4.196 1.091 8.509 1.091 12.909z" fill="#9dc6fb"/><path d="m256 71.5c-5.295 0-10.463.544-15.453 1.574 34.605 7.141 60.621 37.781 60.621 74.5s-26.016 67.359-60.621 74.5c4.99 1.03 25.158-28.426 30.453-28.426 22.472 0 27.669 20.256 41.595 4.763 12.11-13.473 19.479-31.294 19.479-50.836 0-42.016-34.06-76.075-76.074-76.075z" fill="#80b4fb"/><path d="m330.961 134.668c-2.405-14.066-23.669-26.816-32.665-37.118-13.938-15.964-19.436-26.05-42.296-26.05-5.488 0-10.836.594-15.995 1.699 1.518 6.11 3.066 13.286 4.46 21.753 2.28 13.847 3.236 25.588 9.834 27.713 6.426 2.07 11.649-7.094 20.562-5.364 7.478 1.451 8.526 8.819 15.198 14.303 9.05 7.44 26.075 9.463 40.902 3.064z" fill="#b3e59f"/><path d="m330.961 134.668c-7.093-40.446-45.816-70.431-90.358-61.581 31.145 6.452 55.312 31.944 59.804 63.762 8.993 2.637 20.298 2.245 30.554-2.181z" fill="#95d6a4"/><path d="m211.515 122.316c-2.386-7.7-8.93-14.865-16.91-19.647-9.222 12.587-14.678 28.105-14.678 44.904 0 20.246 7.924 38.629 20.82 52.26 9.543-6.344 16.382-16.557 17.03-25.716.431-6.091-2.233-6.668-4.554-18.785-3.476-18.142 1.19-23.663-1.708-33.016z" fill="#b3e59f"/><path d="m230.195 219.15c8.058 2.906 16.745 4.497 25.805 4.497 22.472 0 42.662-9.75 56.588-25.243-5.085-7.54-12.755-14.544-17.091-18.501-6.011-5.485-20.341-18.559-29.178-14.324-6.91 3.312-3.534 13.885-9.549 27.587-6.262 14.261-18.053 21.345-26.575 25.984z" fill="#b3e59f"/><path d="m261.357 223.438c17.537-.942 37.645-9.693 51.231-25.034-5.065-7.42-13.081-14.921-18.173-19.485-9.889 21.831-29.775 38.167-53.826 43.145 1.829.366 10.864 2.209 20.768 1.374z" fill="#95d6a4"/></g></svg>