<svg id="Capa_1" enable-background="new 0 0 510 510" height="512" viewBox="0 0 510 510" width="512" xmlns="http://www.w3.org/2000/svg"><g><path d="m345 195.029v30l45 15 45-15v-30l-45-15z" fill="#405580"/><path d="m390 240.029 45-15v-30l-45-15z" fill="#283d66"/><path d="m210.116 116.645c-15.68-14.321-31.745-16.4-33.525-16.59l-.793-.084h-25.798-25.847l-.842.095c-1.775.202-17.801 2.381-33.446 16.723-13.625 12.488-29.865 37.231-29.865 84.182v24.059l90 25 90-25v-24.059c0-47.137-16.251-71.874-29.884-84.326z" fill="#ff7c48"/><path d="m150 250.029 90-25v-24.059c0-47.137-16.251-71.874-29.884-84.326-15.68-14.321-31.745-16.4-33.525-16.59l-.793-.084h-25.798z" fill="#ff415b"/><path d="m450 239.971h-390-30v255h450v-255z" fill="#995c5c"/><path d="m450 239.971h-195v255h225v-255z" fill="#804040"/><path d="m283 60.029h217v119.883h-217z" fill="#9cf"/><path d="m390 60.029h110v119.883h-110z" fill="#80aaff"/><path d="m0 224.971h510v30h-510z" fill="#b37d7d"/><path d="m255 224.971h255v30h-255z" fill="#995c5c"/><path d="m240 344.971h30v90h-30z" fill="#f8c045"/><path d="m240 284.971h30v30h-30z" fill="#f8c045"/><path d="m255 344.971h15v90h-15z" fill="#ff9e22"/><path d="m255 284.971h15v30h-15z" fill="#ff9e22"/><circle cx="150" cy="75.029" fill="#ffe3c1" r="60"/><path d="m150 135.029c33.084 0 60-26.916 60-60s-26.916-60-60-60z" fill="#f1d0a4"/><path d="m390 195.029h-120v-150h120l15 15-15 15h-90v90h90l15 15z" fill="#5c7099"/><path d="m390 45.029h120v150h-120v-30h90v-90h-90z" fill="#405580"/></g></svg>